<svg width="80" height="21" viewBox="0 0 80 21" fill="none" xmlns="http://www.w3.org/2000/svg">
<path d="M10 20C15.5228 20 20 15.5228 20 10C20 4.47715 15.5228 0 10 0C4.47715 0 0 4.47715 0 10C0 15.5228 4.47715 20 10 20Z" fill="#0000FF"/>
<path d="M40 20C45.5228 20 50 15.5228 50 10C50 4.47715 45.5228 0 40 0C34.4772 0 30 4.47715 30 10C30 15.5228 34.4772 20 40 20Z" fill="#0000FF"/>
<path d="M70 20C75.5228 20 80 15.5228 80 10C80 4.47715 75.5228 0 70 0C64.4772 0 60 4.47715 60 10C60 15.5228 64.4772 20 70 20Z" fill="#0000FF"/>
</svg>
