<svg width="62" height="44" viewBox="0 0 62 44" fill="none" xmlns="http://www.w3.org/2000/svg">
<path d="M21.233 43.5782C23.9489 43.5782 25.5785 43.3066 26.0538 42.8312C26.5291 42.3559 28.6339 41.0658 32.572 39.0967C33.5226 38.6214 36.0348 37.1954 39.1581 35.6337C39.8371 35.2942 42.2814 33.9362 43.0962 33.5288L44.3184 32.9176C44.5221 32.8497 44.8616 32.646 45.3368 32.3744L47.238 31.4238C47.917 31.0843 48.6639 30.609 49.4786 30.2016L58.4412 25.4485C59.1881 23.3435 59.7313 21.646 59.935 20.288C60.1386 18.9299 60.6818 16.9608 61.4287 14.3126C60.3423 11.9361 59.4597 10.1707 58.7128 9.15214C58.1696 8.40522 57.6264 7.5904 56.54 5.89287C56.1327 5.28176 55.7253 4.46694 55.3179 3.72002C54.6389 3.51632 53.1451 3.10891 52.5341 2.97311C51.0403 2.7015 48.7318 1.95459 47.5096 1.54718C46.7627 1.27557 46.0158 1.07187 45.1332 0.868164L40.1766 3.92373C38.0038 5.28176 36.0348 6.16448 34.2015 7.3188L32.3004 8.54102C29.5845 10.3065 28.0907 11.2571 27.7512 11.5966C27.4117 11.9361 26.3254 12.5472 24.4921 13.6336C21.7762 15.2633 18.9924 16.825 16.2764 18.4546C15.3938 18.9978 14.7827 19.4053 14.1716 19.8806C13.0852 20.7633 11.3199 22.5966 10.2335 24.43L6.4991 30.6769C2.6289 37.1954 0.591955 40.5905 0.456156 41.0658C0.320362 41.4732 0.252465 41.8127 0.252465 42.0164C0.252465 43.035 1.27094 43.3066 2.49311 43.3066C4.05476 43.3066 5.68432 43.3745 7.24598 43.3745L19.3318 43.5103C19.9429 43.5103 20.6219 43.5782 21.233 43.5782ZM56.4042 23.004C56.2685 23.004 56.0648 22.9361 55.8611 22.9361L54.5031 22.7324C54.0278 22.7324 53.1451 22.4608 51.923 21.8497C50.8366 21.3065 48.6639 20.4238 48.1207 20.4238C47.9849 20.288 46.8985 18.4546 46.7627 18.0472L46.4232 17.1645C46.0837 16.2139 45.5405 15.5349 45.1332 15.0596C44.7258 14.5843 44.3863 14.1089 44.1147 13.6336C43.8431 13.2262 43.4357 12.6151 42.8246 11.8682C42.9604 11.5287 43.2999 10.5102 43.9789 8.88053C44.6579 7.2509 45.0653 6.23238 45.2689 5.62126L45.9479 3.44842L47.7812 4.12743C48.7318 4.46694 49.7502 4.87435 50.1576 4.94225L53.5525 5.89287C53.7562 6.16448 54.7068 7.5904 54.8426 7.86201L56.8116 10.9855C57.4906 12.0719 58.3054 13.4978 59.1202 14.7201L58.1696 17.9114C57.8301 19.1336 57.5585 19.5411 57.3548 20.1522L56.4042 23.004ZM15.3938 26.1275V21.5102L20.0108 18.5225C20.6219 18.1151 21.6404 17.5719 22.591 17.0966L23.9489 16.4176C24.3563 16.2139 24.6958 16.0781 24.8995 15.9423L30.1277 12.6151C30.8066 12.2077 31.2819 11.9361 31.5535 11.7324L43.232 4.39904L42.6209 5.96077C42.3493 6.70769 42.0098 7.59041 42.0098 7.92991C42.0098 8.54103 41.0593 11.0534 40.7198 11.8003C40.5161 12.1398 39.9729 12.5472 39.0902 13.0225C38.1396 13.4978 37.5286 13.9731 37.1212 14.3805C36.7138 14.788 36.3064 15.1275 35.6953 15.5349L34.8805 16.0781C34.3373 16.4855 33.7263 16.7571 33.3189 16.8929C31.6893 17.4361 31.6893 17.504 30.3314 18.3188C29.7882 18.6583 29.1771 18.9978 28.4302 19.2695C27.2759 19.6769 26.597 20.0843 24.2205 21.646L19.875 23.683C18.9924 24.0905 18.2455 24.4979 17.7702 24.7695L15.3938 26.1275ZM52.3304 17.5719C53.6883 17.5719 54.6389 16.0781 54.6389 14.3126C54.6389 11.3929 51.7872 8.20152 49.7502 8.20152C48.1207 8.20152 47.3059 9.35584 47.3059 11.1892C47.3059 12.7509 50.0897 17.5719 52.3304 17.5719ZM20.1466 35.7695C18.3813 34.3436 17.4307 33.1213 17.1591 32.2386C16.8875 31.3559 16.6838 30.5411 16.3443 29.8621L15.9369 28.9794C17.3628 28.0966 18.6529 27.2818 19.9429 26.3312C20.9614 25.9917 21.3688 25.8559 22.3194 25.1769L23.6773 24.2263C25.3069 23.0719 26.3254 22.5287 26.8685 22.5287C27.4796 22.5287 28.1586 22.1892 29.1092 21.5102L32.2325 19.2016C32.7757 18.7941 33.5905 18.4546 35.899 17.6398C36.6459 17.3682 37.3249 17.0287 37.8001 16.6213C38.3433 16.2139 38.8186 15.9423 39.2939 15.6707L40.2445 15.1275C40.584 14.8559 40.9914 14.7201 41.4666 14.4484C42.2814 15.3991 42.7567 16.0781 42.7567 16.4176C42.7567 16.825 43.0283 17.3682 43.5036 18.1151L45.4047 20.967L44.5221 21.5781C44.0468 21.9176 43.4357 22.2571 42.9604 22.4608L42.0777 22.8682C41.1272 23.3435 40.3124 23.8188 39.5655 24.3621C38.8865 24.8374 38.4112 25.1769 38.0717 25.3806L29.3808 30.2016C28.7697 30.5411 27.6833 31.288 26.597 31.967L22.5231 34.5473C22.1836 34.751 21.7762 34.9547 21.3688 35.1584L20.1466 35.7695ZM25.1711 40.251L21.912 37.5349C22.1836 37.3991 22.4552 37.2633 22.6589 37.0596C22.9304 36.9238 23.202 36.7201 23.5415 36.5164L24.2205 36.0411C24.3563 35.9053 24.6958 35.7016 25.1711 35.43L29.245 32.9855C29.5166 32.7818 30.1956 32.3744 31.2819 31.967C32.7757 31.4238 33.7263 30.7448 34.6768 30.2695C35.22 29.6584 35.6274 29.3189 35.899 28.9794C36.1027 28.7757 36.578 28.504 37.3928 28.1645L38.2754 27.825C39.226 27.4855 39.9729 27.0781 40.6519 26.3991C41.263 25.788 41.8061 25.3806 42.2814 25.3127C42.8246 25.2448 43.4357 24.9732 44.0468 24.5658C45.4726 23.6151 46.4911 23.0719 47.5775 22.5966C47.9849 22.8003 49.7502 23.2756 50.1576 23.3435C51.1082 23.4793 51.7872 23.8188 52.7377 24.2942L53.9599 24.9053C51.5835 26.3991 49.6144 27.7571 47.238 28.8436L45.1332 29.7942C44.6579 29.9979 44.1147 30.2695 43.5715 30.4732C43.0962 30.6769 42.1456 31.0843 40.7877 31.8312L36.7138 34.0041C35.3558 34.751 33.9979 35.5658 32.6399 36.3127C31.7572 36.788 30.9424 37.3312 30.0598 37.8065C29.1092 38.3498 27.0043 39.4362 25.1711 40.251ZM22.3194 41.1337C21.9799 41.1337 20.7577 41.0658 19.2639 41.0658C17.6344 41.0658 15.9369 40.9979 13.8321 40.9979C11.5236 40.9979 9.28292 41.0658 6.97438 41.0658C5.88801 41.0658 4.66584 38.9609 4.66584 37.9423C4.66584 37.467 5.61642 35.9053 6.567 34.5473L7.51757 33.1892C8.26445 32.1028 9.48661 30.3374 10.2335 28.8436L10.7767 27.7571C11.0483 27.2139 11.6594 26.2633 12.2025 25.5164L13.221 24.0905L13.3568 24.9053C13.4247 25.4485 13.4247 25.9917 13.4247 26.6028V27.0102C13.3568 27.146 13.3568 27.2818 13.3568 27.3497C13.3568 27.6213 13.0852 28.1645 12.6778 28.8436C12.2704 29.5905 11.7951 30.4053 11.1841 31.288C12.0667 30.609 13.1531 29.93 13.6963 29.93C14.0358 29.93 14.3074 30.1337 14.3074 30.7448C14.3074 31.6275 12.3383 33.8004 10.5051 35.4979C10.9804 35.3621 11.4557 35.2942 11.9309 35.1584L13.4247 34.5473C13.8321 34.3436 14.7827 34.2757 15.3259 34.2757C16.6838 34.2757 17.7023 35.6337 17.7023 36.3127C17.7023 37.1275 16.9554 37.7386 15.8011 38.6214C16.8196 38.6214 17.3628 38.6893 17.7023 38.6893C18.1776 38.6893 18.6529 38.7572 19.196 38.7572C20.9614 38.7572 22.1836 39.9794 22.9983 41.0658L22.3194 41.1337Z" fill="white"/>
</svg>
