<svg width="60" height="60" viewBox="0 0 60 60" fill="none" xmlns="http://www.w3.org/2000/svg">
<path d="M10 0C4.51677 0 0 4.51677 0 10V50C0 55.4832 4.51677 60 10 60H50C55.4832 60 60 55.4832 60 50V10C60 4.51677 55.4832 0 50 0H10ZM30 13.3333H36.6667C36.6667 16.6833 41.57 20 43.3333 20V26.6667C41.3167 26.6667 38.8933 25.7805 36.6667 24.2839V36.6667C36.6667 42.18 32.18 46.6667 26.6667 46.6667C21.1533 46.6667 16.6667 42.18 16.6667 36.6667C16.6667 31.1533 21.1533 26.6667 26.6667 26.6667V33.3333C24.8267 33.3333 23.3333 34.83 23.3333 36.6667C23.3333 38.5033 24.8267 40 26.6667 40C28.5067 40 30 38.5033 30 36.6667V13.3333Z" fill="white"/>
</svg>
