<svg width="75" height="53" viewBox="0 0 75 53" fill="none" xmlns="http://www.w3.org/2000/svg">
<path d="M2.4591 44.1233L32.0944 14.5508C32.9845 13.559 34.2412 12.972 35.5745 12.9245L45.8036 12.9245L57.6381 1.11741C57.9659 0.790889 58.4962 0.790889 58.824 1.11741L73.9224 16.183L73.9218 16.183C74.2491 16.5095 74.2491 17.0393 73.9218 17.3658L61.8535 29.4085C61.5257 29.7553 61.2188 31.7371 61.0349 32.9216C60.6542 35.3734 60.3711 36.9141 59.6476 37.6364L46.4705 50.7844C45.5137 51.7396 44.2157 52.2774 42.8628 52.2786C41.5091 52.2798 40.2107 51.7448 39.2521 50.7907C38.2936 49.8372 37.754 48.5427 37.7516 47.192C36.7757 47.7559 35.6402 47.984 34.5216 47.841C33.4024 47.698 32.3615 47.1926 31.5591 46.4018C30.5374 45.3805 29.9983 43.9748 30.0772 42.5338C28.5392 43.2082 26.7666 43.0838 25.3382 42.2003C23.9103 41.3162 23.0097 39.7879 22.9309 38.1129L9.68306 51.3316C8.39268 52.6191 6.51159 53.1222 4.74835 52.651C2.98571 52.1791 1.60821 50.8053 1.13603 49.0465C0.663736 47.2871 1.16794 45.4101 2.45831 44.1219L2.4591 44.1233ZM59.3784 32.6658C59.7376 30.3534 59.9917 28.9016 60.6682 28.2265L72.1448 16.7754L58.2314 2.89224L46.7439 14.3525C46.5866 14.5094 46.3737 14.5974 46.1509 14.5974L35.5749 14.5974C34.6872 14.6489 33.858 15.0594 33.2808 15.7338L25.369 23.6284C24.913 23.999 24.7941 24.6456 25.0888 25.1534L33.3562 36.9337C34.6773 35.7828 35.5626 34.2138 35.8638 32.4898C36.1249 31.0667 35.9683 29.5985 35.4119 28.2624C35.0272 27.4571 34.5671 26.69 34.0379 25.9715C33.8035 25.6386 33.843 25.1864 34.1308 24.8993L35.6684 23.365C35.9956 23.0385 36.5265 23.0385 36.8537 23.365L40.3129 26.8167C41.7588 28.2559 43.7176 29.0641 45.7599 29.0641C47.8017 29.0641 49.7605 28.2559 51.2063 26.8167C51.5336 26.4902 52.0645 26.4902 52.3917 26.8167C52.7189 27.1432 52.7189 27.6729 52.3917 27.9995C50.6313 29.7519 48.2461 30.7362 45.76 30.7362C43.2733 30.7362 40.888 29.752 39.1277 27.9995L36.2615 25.1395L35.8147 25.5852C36.2754 26.2232 36.6618 26.911 36.967 27.6365C37.1561 28.1089 37.3058 28.597 37.4126 29.0948C38.3427 30.1717 38.7749 31.5895 38.6032 33.0009C40.2927 32.4758 42.1338 32.8626 43.4676 34.0222C44.8021 35.1818 45.4381 36.9494 45.1478 38.6908C46.6355 38.3018 48.2201 38.6046 49.4577 39.5153C50.6958 40.4254 51.4547 41.8462 51.5226 43.3791L58.4631 36.4537C58.8507 36.0663 59.1686 34.0203 59.3787 32.6655L59.3784 32.6658ZM45.2852 49.6019L48.854 46.0408C49.7214 45.1759 50.0597 43.9143 49.7423 42.7327C49.4249 41.5511 48.5001 40.6277 47.3153 40.311C46.1311 39.9943 44.8674 40.3324 44 41.1974L40.4312 44.7584L40.4318 44.7584C39.5644 45.6234 39.2255 46.8849 39.5429 48.0665C39.8603 49.2481 40.7857 50.1715 41.9699 50.4882C43.1547 50.8049 44.4184 50.4668 45.2852 49.6019ZM37.5986 45.2193L42.5403 40.2883C43.4071 39.4234 43.746 38.1624 43.4286 36.9802C43.1112 35.7986 42.1858 34.8752 41.0016 34.5585C39.8168 34.2418 38.5531 34.5799 37.6863 35.4449L32.7446 40.3758C31.8778 41.2408 31.5389 42.5024 31.8563 43.6839C32.1737 44.8661 33.0991 45.7889 34.2833 46.1056C35.4681 46.4223 36.7318 46.0842 37.5986 45.2193ZM30.4608 40.2855L32.3437 38.4068L28.346 32.7104L25.5337 35.5167C24.6999 36.3984 24.3959 37.6542 24.7336 38.8189C25.0713 39.9832 26.0002 40.8829 27.1774 41.1845C28.3541 41.4856 29.6028 41.1441 30.4608 40.2855ZM8.49875 50.1491L27.3699 31.3189L23.7163 26.1124C23.5996 25.9422 23.5022 25.7587 23.4273 25.5659L3.64569 45.3046C2.77886 46.1695 2.44001 47.4305 2.75738 48.6126C3.07475 49.7943 4.00019 50.7177 5.18441 51.0344C6.3692 51.3511 7.63283 51.013 8.49967 50.148L8.49875 50.1491Z" fill="white"/>
</svg>
