<svg width="60" height="60" viewBox="0 0 60 60" fill="none" xmlns="http://www.w3.org/2000/svg">
<path d="M16.6667 0C7.46333 0 0 7.46333 0 16.6667V43.3333C0 52.5367 7.46333 60 16.6667 60H43.3333C52.5367 60 60 52.5367 60 43.3333V16.6667C60 7.46333 52.5367 0 43.3333 0H16.6667ZM50 6.66667C51.84 6.66667 53.3333 8.16 53.3333 10C53.3333 11.84 51.84 13.3333 50 13.3333C48.16 13.3333 46.6667 11.84 46.6667 10C46.6667 8.16 48.16 6.66667 50 6.66667ZM30 13.3333C39.2033 13.3333 46.6667 20.7967 46.6667 30C46.6667 39.2033 39.2033 46.6667 30 46.6667C20.7967 46.6667 13.3333 39.2033 13.3333 30C13.3333 20.7967 20.7967 13.3333 30 13.3333ZM30 20C27.3478 20 24.8043 21.0536 22.9289 22.9289C21.0536 24.8043 20 27.3478 20 30C20 32.6522 21.0536 35.1957 22.9289 37.0711C24.8043 38.9464 27.3478 40 30 40C32.6522 40 35.1957 38.9464 37.0711 37.0711C38.9464 35.1957 40 32.6522 40 30C40 27.3478 38.9464 24.8043 37.0711 22.9289C35.1957 21.0536 32.6522 20 30 20Z" fill="white"/>
</svg>
