<svg width="60" height="60" viewBox="0 0 60 60" fill="none" xmlns="http://www.w3.org/2000/svg">
<path d="M53.3333 0H6.66667C2.98333 0 0 2.98333 0 6.66667V53.3333C0 57.0167 2.98333 60 6.66667 60H53.3333C57.0167 60 60 57.0167 60 53.3333V6.66667C60 2.98333 57.0167 0 53.3333 0ZM20 46.6667H11.59V23.3333H20V46.6667ZM15.6467 19.0567C13.0767 19.0567 11.36 17.3433 11.36 15.0567C11.36 12.77 13.0733 11.0567 15.93 11.0567C18.5 11.0567 20.2167 12.77 20.2167 15.0567C20.2167 17.3433 18.5033 19.0567 15.6467 19.0567ZM50 46.6667H41.86V33.9133C41.86 30.3867 39.69 29.5733 38.8767 29.5733C38.0633 29.5733 35.35 30.1167 35.35 33.9133C35.35 34.4567 35.35 46.6667 35.35 46.6667H26.94V23.3333H35.35V26.59C36.4333 24.69 38.6033 23.3333 42.6733 23.3333C46.7433 23.3333 50 26.59 50 33.9133V46.6667Z" fill="white"/>
</svg>
